<svg viewBox="0 0 512 512" xmlns="http://www.w3.org/2000/svg">
  <!-- Background Hexagon Pattern -->
  <defs>
    <pattern id="hexagonPattern" x="0" y="0" width="40" height="40" patternUnits="userSpaceOnUse">
      <path d="M10,20 L20,10 L30,20 L30,30 L20,40 L10,30 Z" fill="#6C63FF" opacity="0.1"/>
    </pattern>
  </defs>
  <rect width="512" height="512" fill="url(#hexagonPattern)"/>
  
  <!-- Central Circular Platform -->
  <circle cx="256" cy="256" r="180" fill="#6C63FF" opacity="0.1"/>
  
  <!-- Dynamic Rings -->
  <g transform="rotate(45, 256, 256)">
    <circle cx="256" cy="256" r="160" fill="none" stroke="#6C63FF" stroke-width="8" stroke-dasharray="50,10"/>
    <circle cx="256" cy="256" r="140" fill="none" stroke="#FF6B6B" stroke-width="6" stroke-dasharray="40,8"/>
    <circle cx="256" cy="256" r="120" fill="none" stroke="#4ECDC4" stroke-width="4" stroke-dasharray="30,6"/>
  </g>
  
  <!-- Central Icon -->
  <g transform="translate(256,256)">
    <!-- Trophy Base -->
    <path d="M-50,30 L50,30 L40,50 L-40,50 Z" fill="#FFD700"/>
    <path d="M-30,-50 L30,-50 L50,30 L-50,30 Z" fill="#FFD700"/>
    
    <!-- Trophy Handles -->
    <path d="M-50,-20 C-80,-20 -80,0 -50,0" fill="none" stroke="#FFD700" stroke-width="8"/>
    <path d="M50,-20 C80,-20 80,0 50,0" fill="none" stroke="#FFD700" stroke-width="8"/>
    
    <!-- Level Stars -->
    <g transform="translate(0,-80)">
      <path d="M0,-20 L5.9,-6.2 L20.6,-6.2 L8.2,2.4 L14.1,16.2 L0,7.6 L-14.1,16.2 L-8.2,2.4 L-20.6,-6.2 L-5.9,-6.2Z" 
        fill="#FF6B6B"/>
    </g>
  </g>
  
  <!-- Floating Achievement Icons -->
  <g>
    <!-- Streak Fire -->
    <path d="M200,150 C200,130 220,120 230,140 C240,160 220,170 200,150" fill="#FF6B6B"/>
    
    <!-- Lightning Bolt -->
    <path d="M320,150 L330,130 L310,140 L320,120" fill="none" stroke="#4ECDC4" stroke-width="4"/>
    
    <!-- Check Mark -->
    <path d="M350,300 L370,320 L400,280" fill="none" stroke="#4ECDC4" stroke-width="8" stroke-linecap="round"/>
    
    <!-- Progress Bar -->
    <rect x="150" y="350" width="100" height="10" rx="5" fill="#6C63FF" opacity="0.3"/>
    <rect x="150" y="350" width="70" height="10" rx="5" fill="#6C63FF"/>
  </g>
  
  <!-- Floating Particles -->
  <g fill="#FFD700" opacity="0.6">
    <circle cx="160" cy="180" r="4"/>
    <circle cx="380" cy="200" r="3"/>
    <circle cx="200" cy="400" r="4"/>
    <circle cx="340" cy="350" r="3"/>
    <circle cx="300" cy="150" r="4"/>
  </g>
</svg>
